<mxfile host="65bd71144e">
    <diagram id="OFAHxet9yhiEAMQGFP1r" name="Page-1">
        <mxGraphModel dx="473" dy="404" grid="1" gridSize="10" guides="1" tooltips="1" connect="1" arrows="1" fold="1" page="1" pageScale="1" pageWidth="850" pageHeight="1100" math="0" shadow="0">
            <root>
                <mxCell id="0"/>
                <mxCell id="1" parent="0"/>
                <mxCell id="34" style="edgeStyle=none;html=1;entryX=1;entryY=0.5;entryDx=0;entryDy=0;" parent="1" source="6" target="9" edge="1">
                    <mxGeometry relative="1" as="geometry"/>
                </mxCell>
                <mxCell id="35" value="Owns" style="edgeLabel;html=1;align=center;verticalAlign=middle;resizable=0;points=[];" parent="34" vertex="1" connectable="0">
                    <mxGeometry x="0.3647" y="-1" relative="1" as="geometry">
                        <mxPoint x="18" y="-19" as="offset"/>
                    </mxGeometry>
                </mxCell>
                <mxCell id="6" value="Energy Grid Program" style="rounded=0;whiteSpace=wrap;html=1;fillColor=#a0522d;fontColor=#ffffff;strokeColor=#6D1F00;" parent="1" vertex="1">
                    <mxGeometry x="633" y="420" width="200" height="80" as="geometry"/>
                </mxCell>
                <mxCell id="9" value="Energy Device Account" style="rounded=0;whiteSpace=wrap;html=1;fillColor=#76608a;fontColor=#ffffff;strokeColor=#432D57;" parent="1" vertex="1">
                    <mxGeometry x="342" y="420" width="200" height="80" as="geometry"/>
                </mxCell>
                <mxCell id="30" style="edgeStyle=none;html=1;entryX=0;entryY=0.5;entryDx=0;entryDy=0;" parent="1" source="12" target="29" edge="1">
                    <mxGeometry relative="1" as="geometry"/>
                </mxCell>
                <mxCell id="32" value="Initializes" style="edgeLabel;html=1;align=center;verticalAlign=middle;resizable=0;points=[];" parent="30" vertex="1" connectable="0">
                    <mxGeometry x="-0.4571" y="-1" relative="1" as="geometry">
                        <mxPoint x="27" y="-16" as="offset"/>
                    </mxGeometry>
                </mxCell>
                <mxCell id="12" value="Energy Cell Wallet" style="rounded=0;whiteSpace=wrap;html=1;fillColor=#6d8764;fontColor=#ffffff;strokeColor=#3A5431;" parent="1" vertex="1">
                    <mxGeometry x="60" y="260" width="200" height="80" as="geometry"/>
                </mxCell>
                <mxCell id="22" style="edgeStyle=none;html=1;entryX=0.5;entryY=0;entryDx=0;entryDy=0;" parent="1" source="24" target="12" edge="1">
                    <mxGeometry relative="1" as="geometry"/>
                </mxCell>
                <mxCell id="23" value="Owns" style="edgeLabel;html=1;align=center;verticalAlign=middle;resizable=0;points=[];" parent="22" vertex="1" connectable="0">
                    <mxGeometry x="-0.4933" y="-2" relative="1" as="geometry">
                        <mxPoint x="22" y="8" as="offset"/>
                    </mxGeometry>
                </mxCell>
                <mxCell id="24" value="System Program" style="rounded=0;whiteSpace=wrap;html=1;fillColor=#a0522d;strokeColor=#6D1F00;fontColor=#ffffff;" parent="1" vertex="1">
                    <mxGeometry x="60" y="130" width="200" height="80" as="geometry"/>
                </mxCell>
                <mxCell id="33" style="edgeStyle=none;html=1;entryX=0.5;entryY=0;entryDx=0;entryDy=0;" parent="1" source="29" target="9" edge="1">
                    <mxGeometry relative="1" as="geometry"/>
                </mxCell>
                <mxCell id="29" value="PDA" style="rounded=1;whiteSpace=wrap;html=1;fillColor=#647687;fontColor=#ffffff;strokeColor=#314354;" parent="1" vertex="1">
                    <mxGeometry x="397" y="285" width="90" height="30" as="geometry"/>
                </mxCell>
                <mxCell id="48" style="edgeStyle=none;html=1;entryX=0.5;entryY=1;entryDx=0;entryDy=0;" parent="1" edge="1">
                    <mxGeometry relative="1" as="geometry">
                        <mxPoint x="147" y="590" as="sourcePoint"/>
                        <mxPoint x="147" y="500" as="targetPoint"/>
                    </mxGeometry>
                </mxCell>
                <mxCell id="49" value="Sends Transaction&lt;br&gt;Request" style="edgeLabel;html=1;align=center;verticalAlign=middle;resizable=0;points=[];" parent="48" vertex="1" connectable="0">
                    <mxGeometry x="0.4444" y="1" relative="1" as="geometry">
                        <mxPoint x="-59" y="15" as="offset"/>
                    </mxGeometry>
                </mxCell>
                <mxCell id="60" style="edgeStyle=none;html=1;entryX=0;entryY=0.5;entryDx=0;entryDy=0;" edge="1" parent="1" source="36" target="45">
                    <mxGeometry relative="1" as="geometry"/>
                </mxCell>
                <mxCell id="61" value="Reads Solana&lt;br&gt;Pay QR Code" style="edgeLabel;html=1;align=center;verticalAlign=middle;resizable=0;points=[];" vertex="1" connectable="0" parent="60">
                    <mxGeometry x="0.3429" y="-4" relative="1" as="geometry">
                        <mxPoint x="-15" y="16" as="offset"/>
                    </mxGeometry>
                </mxCell>
                <mxCell id="36" value="User Wallet" style="rounded=0;whiteSpace=wrap;html=1;fillColor=#6d8764;fontColor=#ffffff;strokeColor=#3A5431;" parent="1" vertex="1">
                    <mxGeometry x="60" y="590" width="200" height="80" as="geometry"/>
                </mxCell>
                <mxCell id="50" style="edgeStyle=none;html=1;entryX=0.5;entryY=0;entryDx=0;entryDy=0;" parent="1" edge="1">
                    <mxGeometry relative="1" as="geometry">
                        <mxPoint x="175" y="500" as="sourcePoint"/>
                        <mxPoint x="175" y="590" as="targetPoint"/>
                    </mxGeometry>
                </mxCell>
                <mxCell id="51" value="Responds with&lt;br&gt;Serialized Transaction" style="edgeLabel;html=1;align=center;verticalAlign=middle;resizable=0;points=[];" parent="50" vertex="1" connectable="0">
                    <mxGeometry x="-0.4889" y="3" relative="1" as="geometry">
                        <mxPoint x="52" y="17" as="offset"/>
                    </mxGeometry>
                </mxCell>
                <mxCell id="52" style="edgeStyle=none;html=1;entryX=0;entryY=0.5;entryDx=0;entryDy=0;" parent="1" source="44" target="9" edge="1">
                    <mxGeometry relative="1" as="geometry"/>
                </mxCell>
                <mxCell id="53" value="Adds Active&lt;br&gt;Time" style="edgeLabel;html=1;align=center;verticalAlign=middle;resizable=0;points=[];" parent="52" vertex="1" connectable="0">
                    <mxGeometry x="-0.3636" y="-3" relative="1" as="geometry">
                        <mxPoint x="9" y="-23" as="offset"/>
                    </mxGeometry>
                </mxCell>
                <mxCell id="44" value="Backend Server" style="rounded=0;whiteSpace=wrap;html=1;fillColor=#9C6B08;fontColor=#ffffff;strokeColor=#9C6B08;" parent="1" vertex="1">
                    <mxGeometry x="60" y="420" width="200" height="80" as="geometry"/>
                </mxCell>
                <mxCell id="67" style="edgeStyle=none;html=1;entryX=0.5;entryY=1;entryDx=0;entryDy=0;" edge="1" parent="1" source="45" target="9">
                    <mxGeometry relative="1" as="geometry"/>
                </mxCell>
                <mxCell id="68" value="Listens to" style="edgeLabel;html=1;align=center;verticalAlign=middle;resizable=0;points=[];" vertex="1" connectable="0" parent="67">
                    <mxGeometry x="0.5889" y="1" relative="1" as="geometry">
                        <mxPoint x="-31" y="22" as="offset"/>
                    </mxGeometry>
                </mxCell>
                <mxCell id="45" value="User Frontend" style="rounded=0;whiteSpace=wrap;html=1;fillColor=#9C6B08;strokeColor=#9C6B08;fontColor=#FFFFFF;" parent="1" vertex="1">
                    <mxGeometry x="342" y="590" width="200" height="80" as="geometry"/>
                </mxCell>
                <mxCell id="64" style="edgeStyle=none;html=1;entryX=0.5;entryY=1;entryDx=0;entryDy=0;" edge="1" parent="1" source="57" target="45">
                    <mxGeometry relative="1" as="geometry"/>
                </mxCell>
                <mxCell id="66" value="Views" style="edgeLabel;html=1;align=center;verticalAlign=middle;resizable=0;points=[];" vertex="1" connectable="0" parent="64">
                    <mxGeometry x="0.3708" y="1" relative="1" as="geometry">
                        <mxPoint x="-21" y="11" as="offset"/>
                    </mxGeometry>
                </mxCell>
                <mxCell id="57" value="User" style="shape=umlActor;verticalLabelPosition=bottom;verticalAlign=top;html=1;outlineConnect=0;" parent="1" vertex="1">
                    <mxGeometry x="427" y="730" width="30" height="60" as="geometry"/>
                </mxCell>
                <mxCell id="62" style="edgeStyle=none;html=1;entryX=1;entryY=0.75;entryDx=0;entryDy=0;" edge="1" parent="1" source="45" target="45">
                    <mxGeometry relative="1" as="geometry"/>
                </mxCell>
                <mxCell id="63" value="Shows active status if&lt;br&gt;Active Until &amp;gt; NOW" style="edgeLabel;html=1;align=center;verticalAlign=middle;resizable=0;points=[];" vertex="1" connectable="0" parent="62">
                    <mxGeometry x="0.2623" y="-1" relative="1" as="geometry">
                        <mxPoint x="59" y="-9" as="offset"/>
                    </mxGeometry>
                </mxCell>
            </root>
        </mxGraphModel>
    </diagram>
</mxfile>